<?xml version="1.0" encoding="UTF-8"?>
<svg width="100px" height="100px" viewBox="0 0 100 100" version="1.1" xmlns="http://www.w3.org/2000/svg" xmlns:xlink="http://www.w3.org/1999/xlink">
    <!-- Generator: Sketch 51.2 (57519) - http://www.bohemiancoding.com/sketch -->
    <title>RocketMQProducer</title>
    <desc>Created with Sketch.</desc>
    <defs></defs>
    <g id="RocketMQProducer" stroke="none" stroke-width="1" fill="none" fill-rule="evenodd">
        <rect fill="#FFFFFF" x="0" y="0" width="100" height="100"></rect>
        <g id="Group" transform="translate(21.000000, 19.000000)" fill-rule="nonzero">
            <circle id="Oval" stroke="#56BFDA" stroke-width="3" cx="26.7076923" cy="25.8461538" r="16.3692308"></circle>
            <circle id="Oval" fill="#56BFDA" cx="8.61538462" cy="5.16923077" r="4.30769231"></circle>
            <circle id="Oval-Copy-2" fill="#56BFDA" cx="25.8461538" cy="25.8461538" r="2.58461538"></circle>
            <circle id="Oval-Copy-3" fill="#56BFDA" cx="34.4615385" cy="25.8461538" r="2.58461538"></circle>
            <circle id="Oval-Copy-4" fill="#56BFDA" cx="17.2307692" cy="25.8461538" r="2.58461538"></circle>
            <circle id="Oval" fill="#56BFDA" cx="5.16923077" cy="44.8" r="5.16923077"></circle>
            <circle id="Oval-Copy" fill="#56BFDA" cx="48.2461538" cy="52.5538462" r="7.75384615"></circle>
            <circle id="Oval" fill="#56BFDA" cx="46.5230769" cy="5.16923077" r="5.16923077"></circle>
            <path d="M9.90769231,7.32307692 L15.0769231,13.3538462" id="Line-2" stroke="#56BFDA" stroke-width="4" stroke-linecap="square"></path>
            <path d="M6.03076923,43.9384615 L12.9230769,37.0461538" id="Line-2-Copy" stroke="#56BFDA" stroke-width="4" stroke-linecap="square"></path>
            <path d="M39.9076923,11.7846154 L46.8,4.89230769" id="Line-2-Copy-2" stroke="#56BFDA" stroke-width="4" stroke-linecap="square"></path>
            <path d="M37.9076923,38.7692308 L47.3846154,49.9692308" id="Line-2-Copy-3" stroke="#56BFDA" stroke-width="4" stroke-linecap="square"></path>
        </g>
        <rect id="Rectangle-2" stroke="#3D6380" stroke-width="2" fill-rule="nonzero" x="14" y="15" width="70" height="69"></rect>
        <polygon id="Path" fill="#FFFFFF" fill-rule="nonzero" transform="translate(20.033009, 20.033009) rotate(315.000000) translate(-20.033009, -20.033009) " points="20.0330086 -4.96699141 70.0330086 45.0330086 -29.9669914 45.0330086"></polygon>
        <path id="Line" d="M29.6896552,30.7241379 L25.1034483,15.7586207 L14.9655172,25.4137931 L29.6896552,30.7241379 Z M8.27586207,9.68965517 L20.0260387,22.0273406 L20.7156938,22.7514785 L22.1639697,21.3721682 L21.4743145,20.6480303 L9.72413793,8.31034483 L9.03448276,7.5862069 L7.5862069,8.96551724 L8.27586207,9.68965517 Z" fill="#3D6380" fill-rule="nonzero"></path>
    </g>
</svg>